<?xml version="1.0" encoding="UTF-8"?>
<svg width="100pt" height="100pt" version="1.1" viewBox="0 0 100 100" xmlns="http://www.w3.org/2000/svg">
 <path d="m95.5 43.398c-2-1.1992-4.6016-0.60156-5.8008 1.3984l-12.398 20c-3.3984-2.1016-7.1016-3.8008-11.199-5 7.6992-5.1992 12.801-14 12.801-24 0-7.6016-3-14.5-7.8008-19.699l3.1992-1.3008c1.6016-0.60156 2.3984-2.5 1.8008-4.1016-0.69922-1.6016-2.5-2.3984-4.1016-1.8008l-1.6992 0.69922 0.39844-1.5938c0.5-1.6992-0.5-3.3984-2.1992-3.8984s-3.3984 0.5-3.8984 2.1992l-1.1016 3.8984c-4-2.1992-8.6016-3.3984-13.5-3.3984-16 0-28.898 13-28.898 28.898 0 10 5.1016 18.801 12.801 24-4.1016 1.1992-7.8008 2.8984-11.199 5l-12.398-20c-1.1992-2-3.8008-2.6016-5.8008-1.3984-2 1.1992-2.6016 3.8008-1.3984 5.8008l13 21c-5.1055 5.3984-8.4062 12.398-9.3047 21.098-0.30078 2.6016 1.8008 4.8008 4.5 4.8008h77.602c2.6016 0 4.6992-2.1992 4.5-4.8008-0.89844-8.6992-4.3008-15.801-9.3008-21.102l13-21c1-1.8984 0.39844-4.4961-1.6016-5.6992zm-66-7.6992c0-4.8984 1.6992-9.3984 4.6016-12.898h31.699c2.8984 3.5 4.6016 8 4.6016 12.898 0 0.69922 0 1.3008-0.10156 2h-40.699c0-0.69922-0.10156-1.3984-0.10156-2z"/>
 <path d="m46 30.199c0 5.8672-8.8008 5.8672-8.8008 0 0-5.8672 8.8008-5.8672 8.8008 0"/>
 <path d="m62.801 30.199c0 5.8672-8.8008 5.8672-8.8008 0 0-5.8672 8.8008-5.8672 8.8008 0"/>
</svg>
